# xmcd CD database file
#
# Track frame offsets:
#	150
#	15145
#	32440
#	51792
#	71215
#	91187
#	111545
#	126937
#	145800
#	160017
#	181050
#
# Disc length: 2703 seconds
#
# Revision: 0
# Processed by: cddbd v1.5.1PL0 Copyright (c) Steve Scherf et al.
# Submitted via: CDex 1.51
#
DISCID=880a8d0b
DTITLE=朝川ひろこ他 - 最新テレビまんが大行進女の子向けDisc2
DYEAR=1996
DGENRE=Anime
TTITLE0=朝川ひろこ&影山ヒロノブ/Dokkan Beat
TTITLE1=朝川ひろこ&影山ヒロノブ/出逢いはミラクル
TTITLE2=SWAY/キライにならないで
TTITLE3=SWAY/ぬ〜ぼ〜のいちにち
TTITLE4=プリティキャスト/Be My Love
TTITLE5=プリティキャスト/Morning Moonで会いましょう
TTITLE6=プリティキャスト、森の木児童合唱団/三時の妖精
TTITLE7=山野さと子/うれしい予感
TTITLE8=狩野勇気夫/針切じいさんのロケン・ロール
TTITLE9=米屋純/水色時代
TTITLE10=鈴木真仁/あの頃のように
EXTD=YEAR: 1996
EXTT0=
EXTT1=
EXTT2=
EXTT3=
EXTT4=
EXTT5=
EXTT6=
EXTT7=
EXTT8=
EXTT9=
EXTT10=
PLAYORDER=
